<svg width="25" height="24" viewBox="0 0 25 24" fill="none" xmlns="http://www.w3.org/2000/svg">
<mask id="path-1-inside-1_1094_15175" fill="white">
<path d="M8.44738 0C5.30321 0 2.74707 2.55614 2.74707 5.70031C2.74707 8.78448 5.1592 11.2806 8.30338 11.3886C8.39938 11.3766 8.49539 11.3766 8.56739 11.3886H8.62739H8.6514C11.7236 11.2806 14.1357 8.78448 14.1477 5.70031C14.1477 2.55614 11.5916 0 8.44738 0Z"/>
</mask>
<path d="M8.30338 11.3886L8.25875 12.6879L8.36205 12.6914L8.46462 12.6786L8.30338 11.3886ZM8.56739 11.3886L8.35367 12.6709L8.4598 12.6886H8.56739V11.3886ZM8.6514 11.3886V12.6886H8.67424L8.69707 12.6878L8.6514 11.3886ZM14.1477 5.70031L15.4477 5.70537V5.70031H14.1477ZM8.44738 -1.3C4.58524 -1.3 1.44707 1.83817 1.44707 5.70031H4.04707C4.04707 3.27411 6.02118 1.3 8.44738 1.3V-1.3ZM1.44707 5.70031C1.44707 9.49422 4.42355 12.5561 8.25875 12.6879L8.34801 10.0894C5.89486 10.0051 4.04707 8.07475 4.04707 5.70031H1.44707ZM8.46462 12.6786C8.46128 12.679 8.4554 12.6796 8.44438 12.6796C8.43841 12.6796 8.42856 12.6794 8.41497 12.6785C8.40177 12.6775 8.38092 12.6755 8.35367 12.6709L8.78111 10.1063C8.55237 10.0682 8.32491 10.0758 8.14213 10.0987L8.46462 12.6786ZM8.56739 12.6886H8.62739V10.0886H8.56739V12.6886ZM8.62739 12.6886H8.6514V10.0886H8.62739V12.6886ZM8.69707 12.6878C12.4707 12.5552 15.433 9.4841 15.4477 5.70537L12.8477 5.69526C12.8384 8.08487 10.9764 10.0061 8.60572 10.0894L8.69707 12.6878ZM15.4477 5.70031C15.4477 1.83817 12.3095 -1.3 8.44738 -1.3V1.3C10.8736 1.3 12.8477 3.27411 12.8477 5.70031H15.4477Z" fill="#939393" mask="url(#path-1-inside-1_1094_15175)"/>
<path d="M2.71446 21.7681L2.71268 21.767C1.33196 20.8465 0.65 19.6609 0.65 18.4556C0.65 17.2497 1.33244 16.0525 2.7243 15.1205C4.28242 14.0896 6.35819 13.5553 8.46344 13.5553C10.5695 13.5553 12.6389 14.09 14.1842 15.1202C15.5603 16.0376 16.2361 17.2227 16.2469 18.4343C16.2459 19.6513 15.5632 20.8365 14.1818 21.7686C12.6306 22.8098 10.5561 23.3499 8.44847 23.3499C6.34051 23.3499 4.26571 22.8097 2.71446 21.7681Z" stroke="#939393" stroke-width="1.3"/>
<path d="M15.5803 9.98254C16.6084 8.78035 17.1641 7.1785 17.0271 5.4663L17.0271 5.4663L17.0268 5.46217C16.9576 4.66211 16.7359 3.91406 16.4005 3.23981C16.6049 3.18625 16.8185 3.14886 17.0361 3.12948C19.0304 2.95689 20.814 4.44396 20.9878 6.46073C21.1498 8.43185 19.7599 10.1493 17.8387 10.4004H17.8193C17.8165 10.4004 17.8128 10.4003 17.8083 10.4003C17.7651 10.3997 17.6471 10.3982 17.5133 10.4282C16.8013 10.453 16.1411 10.2902 15.5803 9.98254Z" stroke="#939393" stroke-width="1.3"/>
<path d="M23.387 17.4487L23.3869 17.4487L23.3863 17.4559C23.3126 18.3498 22.7416 19.1882 21.6336 19.7955L21.6328 19.7959C20.922 20.1869 20.0759 20.4483 19.1793 20.5719C19.5511 19.9582 19.7794 19.2837 19.8451 18.5776L19.8451 18.5776L19.8458 18.5696C19.987 16.8179 19.1425 15.1956 17.6014 13.9549L17.6014 13.9548L17.597 13.9514C17.2799 13.7006 16.9449 13.4697 16.5947 13.2585C18.5923 13.1742 20.6755 13.737 22.0658 14.859L22.0666 14.8596C23.0504 15.6509 23.4693 16.5706 23.387 17.4487Z" stroke="#939393" stroke-width="1.3"/>
</svg>
